<?xml version="1.0" encoding="utf-8"?>
<!-- Generator: Adobe Illustrator 18.0.0, SVG Export Plug-In . SVG Version: 6.00 Build 0)  -->
<!DOCTYPE svg PUBLIC "-//W3C//DTD SVG 1.1//EN" "http://www.w3.org/Graphics/SVG/1.1/DTD/svg11.dtd">
<svg version="1.1" id="Layer_1" xmlns="http://www.w3.org/2000/svg" xmlns:xlink="http://www.w3.org/1999/xlink" x="0px" y="0px"
	 viewBox="0 0 2024.4 241" enable-background="new 0 0 2024.4 241" xml:space="preserve">
<linearGradient id="SVGID_1_" gradientUnits="userSpaceOnUse" x1="1012.2134" y1="28.5802" x2="1012.2134" y2="222.0942">
	<stop  offset="0" style="stop-color:#E0ECF8"/>
	<stop  offset="0.5" style="stop-color:#E0ECF8;stop-opacity:0.5"/>
	<stop  offset="1" style="stop-color:#D8E8F7;stop-opacity:0"/>
</linearGradient>
<path fill="url(#SVGID_1_)" d="M2024.4,241c0-84.6-68.5-153.1-153.1-153.1c-48.9,0-92.4,22.9-120.5,58.6
	c-19.3-14.2-43.2-22.5-69-22.5c-17.4,0-33.9,3.8-48.7,10.6c-36-41.1-88.9-67.1-147.9-67.1c-54.5,0-103.8,22.2-139.4,58
	c-26.4-17.7-58.2-28-92.5-28c-27.6,0-53.7,6.7-76.7,18.7C1129.3,46.1,1049,0,958,0c-86.3,0-163,41.4-211.1,105.5
	C716,84.4,678.7,72,638.5,72c-39.7,0-76.7,12.1-107.3,32.8C489.8,62.3,432,36,368,36c-68.3,0-129.6,30.1-171.4,77.7
	c-17.4-7.8-36.7-12.2-57.1-12.2C62.5,101.5,0,164,0,241"/>
</svg>
