<?xml version="1.0" encoding="utf-8"?>
<!-- Generator: Adobe Illustrator 18.0.0, SVG Export Plug-In . SVG Version: 6.00 Build 0)  -->
<!DOCTYPE svg PUBLIC "-//W3C//DTD SVG 1.1//EN" "http://www.w3.org/Graphics/SVG/1.1/DTD/svg11.dtd">
<svg version="1.1" id="Layer_1" xmlns="http://www.w3.org/2000/svg" xmlns:xlink="http://www.w3.org/1999/xlink" x="0px" y="0px"
	 viewBox="0 0 305.6 142" enable-background="new 0 0 305.6 142" xml:space="preserve">
<linearGradient id="SVGID_1_" gradientUnits="userSpaceOnUse" x1="152.8208" y1="-1.618901e-009" x2="152.8208" y2="141.9848">
	<stop  offset="0" style="stop-color:#E0ECF8"/>
	<stop  offset="0.65" style="stop-color:#E0ECF8;stop-opacity:0.5"/>
	<stop  offset="1" style="stop-color:#D8E8F7;stop-opacity:0"/>
</linearGradient>
<path fill="url(#SVGID_1_)" d="M277.7,86.1c-0.3,0-0.6,0-0.9,0c-4.2-21.7-23.2-38-46.1-38c-3.1,0-6.1,0.3-9,0.9
	c-1.8-13.7-13.5-24.3-27.7-24.3c-7,0-13.4,2.6-18.3,6.8C163.1,12.6,141.4,0,116.8,0C86.6,0,60.9,18.8,50.6,45.2
	c-0.7,0-1.5-0.1-2.2-0.1C21.7,45.2,0,66.8,0,93.6C0,120.3,21.7,142,48.4,142h229.3h0c15.4,0,27.9-12.5,27.9-27.9
	C305.6,98.6,293.1,86.1,277.7,86.1 M183.6,95.1c0.1-0.3,0.2-0.7,0.3-1c0,0.3,0,0.7,0,1H183.6z"/>
</svg>
