<?xml version="1.0" encoding="utf-8"?>
<!-- Generator: Adobe Illustrator 18.0.0, SVG Export Plug-In . SVG Version: 6.00 Build 0)  -->
<!DOCTYPE svg PUBLIC "-//W3C//DTD SVG 1.1//EN" "http://www.w3.org/Graphics/SVG/1.1/DTD/svg11.dtd">
<svg version="1.1" id="Layer_1" xmlns="http://www.w3.org/2000/svg" xmlns:xlink="http://www.w3.org/1999/xlink" x="0px" y="0px"
	 viewBox="0 0 181.6 92" enable-background="new 0 0 181.6 92" xml:space="preserve">
<linearGradient id="SVGID_1_" gradientUnits="userSpaceOnUse" x1="90.7911" y1="-4.883987e-010" x2="90.7911" y2="92.0228">
	<stop  offset="0" style="stop-color:#E0ECF8"/>
	<stop  offset="0.65" style="stop-color:#E0ECF8;stop-opacity:0.5"/>
	<stop  offset="1" style="stop-color:#D8E8F7;stop-opacity:0"/>
</linearGradient>
<path fill="url(#SVGID_1_)" d="M159,46.6c-2.5,0-4.8,0.4-7,1.1c-5.1-9.2-14.8-15.4-26.1-15.4c-2,0-4,0.2-5.9,0.6
	C116.3,14.1,99.7,0,79.9,0c-20.2,0-37,14.7-40.3,33.9c-3.1-1.1-6.4-1.7-9.9-1.7C13.3,32.2,0,45.7,0,62.1S13.3,92,29.7,92H159
	c12.5,0,22.6-10.3,22.6-22.7C181.6,56.8,171.5,46.6,159,46.6z"/>
</svg>
