<?xml version="1.0" encoding="utf-8"?>
<!-- Generator: Adobe Illustrator 18.0.0, SVG Export Plug-In . SVG Version: 6.00 Build 0)  -->
<!DOCTYPE svg PUBLIC "-//W3C//DTD SVG 1.1//EN" "http://www.w3.org/Graphics/SVG/1.1/DTD/svg11.dtd">
<svg version="1.1" id="Layer_1" xmlns="http://www.w3.org/2000/svg" xmlns:xlink="http://www.w3.org/1999/xlink" x="0px" y="0px"
	 viewBox="0 0 65 62.5" enable-background="new 0 0 65 62.5" xml:space="preserve">
<g>
	<g>
		<path fill="#F0C68A" d="M58.3,14c-0.2-0.2-0.3-0.4-0.5-0.6c-5.3-6-12.9-11.3-21.3-11.5C28.8,1.7,17,3.7,11.4,9.5
			c-3.5,3.7-8.5,9.2-9.3,14.2c-1.5,9,0.9,26.2,8.4,33.5C16,62.5,27,63,34.2,62.1c9.8-1.2,19.4-5.9,25.4-13.8
			C67.4,37.9,66.5,23.8,58.3,14z"/>
		<path fill="#C78C44" d="M58.3,14c-0.2-0.2-0.3-0.4-0.5-0.6c-5.3-6-12.9-11.3-21.3-11.5C28.8,1.7,17,3.7,11.4,9.5
			c-3.5,3.7-8.5,9.2-9.3,14.2c-1.5,9,0.9,26.2,8.4,33.5C16,62.5,27,63,34.2,62.1c9.8-1.2,19.4-5.9,25.4-13.8
			C67.4,37.9,66.5,23.8,58.3,14z"/>
	</g>
	<path fill="#F0C68A" d="M56.7,12.1c-0.2-0.2-0.3-0.4-0.5-0.6C50.9,5.5,43.3,0.2,34.9,0C27.2-0.2,15.3,1.9,9.7,7.6
		c-3.5,3.7-8.5,9.2-9.3,14.2c-1.5,9,0.9,26.2,8.4,33.5c5.5,5.3,16.6,5.8,23.7,4.9c9.8-1.2,19.4-5.9,25.4-13.8
		C65.7,36.1,64.8,21.9,56.7,12.1z"/>
	<path fill="#7F4F25" d="M20.5,24.1c-0.5-0.1-1-0.1-1.5,0.4c-0.3,0.3-0.5,0.8-0.7,1.2c-0.3,0.6-0.6,1.3-0.5,2
		c0.1,0.5,0.3,0.9,0.6,1.3c0.2,0.4,0.5,0.7,0.9,0.9c0.7,0.4,1.6,0.2,2.1-0.4c0.4-0.5,0.4-1.1,0.5-1.7c0.1-0.7,0.2-1.4,0-2.1
		C21.7,24.9,21.2,24.3,20.5,24.1z"/>
	<path fill="#7F4F25" d="M50.8,18c0-0.1-0.1-0.2-0.1-0.3c-0.1-0.2-0.2-0.5-0.4-0.7c-0.6-0.6-1.9-0.8-2.7-0.7
		c-1.3,0.2-1.7,1.5-1.7,2.7c0.1,1.3,1.1,2.4,2.2,3.1c1.1,0.7,2.5,0.1,3-1C51.6,20,51.2,18.9,50.8,18z"/>
	<path fill="#7F4F25" d="M25.6,10c0.1-0.1,0.2-0.2,0.3-0.4c0.3-0.5,0.3-1.2,0-1.8c-0.1-0.3-0.3-0.6-0.6-0.8c-0.5-0.5-1.3-0.6-2-0.7
		c-0.4-0.1-0.8,0.3-0.8,0.7c-0.1,0.7-0.1,1.6,0.2,2.3C23.1,10.6,24.8,10.8,25.6,10z"/>
	<path fill="#7F4F25" d="M26.3,50.8c-1.6-0.8-4.7,0.2-4.8,1.7c0,0.5,0.4,1.2,1.1,1.4c0.7,0.2,1.7-0.1,2.4-0.4
		c0.6-0.2,1.4-0.5,1.8-0.9C27.5,51.9,27,51.1,26.3,50.8z"/>
	<path fill="#7F4F25" d="M48.9,34.8c-0.3-0.8-0.8-1.6-1.4-2.1c-0.9-0.7-2.1-0.5-3-0.1c-0.3,0.1-0.6,0.3-0.7,0.6
		c-0.5,1.5-0.2,3.3,0.9,4.4c0.9,0.9,2.3,1.3,3.4,0.5C49.2,37.4,49.4,35.9,48.9,34.8z"/>
	<path fill="#7F4F25" d="M43.8,7.1c-0.9-0.8-2.7-1-3.1,0.4c-0.2,0.6-0.1,1.2,0.3,1.8c0.3,0.5,0.9,0.9,1.4,1.1c0.4,0.2,0.9,0.2,1.3,0
		c0.4-0.2,0.6-0.5,0.8-0.9c0.3-0.7,0.1-1.5-0.3-2.1C44,7.3,43.9,7.2,43.8,7.1z"/>
	<path fill="#7F4F25" d="M9.1,29.8c-0.9-0.5-2-0.4-2.5,0.8c-0.1,0.2-0.1,0.5-0.1,0.7c0,0.4,0,0.9,0.1,1.3c0.2,0.7,0.7,1.2,1.3,1.5
		c0.7,0.4,1.7,0.4,2.2-0.3c0.3-0.3,0.3-0.7,0.4-1.1c0-0.7-0.1-1.5-0.6-2.1C9.7,30.3,9.4,30,9.1,29.8z"/>
	<path fill="#7F4F25" d="M42.3,46c-0.1,0-0.2,0-0.3,0.1c-0.7,0.2-1,1.1-1.1,1.7c-0.3,0.9-0.3,1.8,0.2,2.6c0.4,0.8,1.4,1.3,2.3,1
		c0.6-0.2,1-0.7,1.2-1.3c0.2-0.6,0.2-1.2,0-1.8c-0.1-0.5-0.3-1.1-0.6-1.5C43.4,46.3,42.9,46,42.3,46z"/>
	<path fill="#7F4F25" d="M58.1,28.1c-0.5-0.7-1.5-1.5-2.2-1.7c-1.3-0.2-3.4,0.5-3.6,2c-0.1,1,0.6,1.9,1.4,2.4
		c0.7,0.4,1.5,0.5,2.3,0.5c0.5,0,1,0,1.5-0.3c0.9-0.5,1.3-1.6,0.9-2.6C58.3,28.4,58.2,28.3,58.1,28.1z"/>
	<path fill="#7F4F25" d="M31.6,16.3c-1.4,1.7-0.3,4.8,2.1,4.7c0.8,0,1.9-0.6,2.3-1.3c0.4-0.8,0.1-1.7-0.3-2.4
		c-0.3-0.6-0.6-1.4-1.2-1.7C33.6,14.9,32.3,15.5,31.6,16.3z"/>
	<path fill="#7F4F25" d="M30.1,29.1c-0.7,0.3-1.4,0.7-1.9,1.3c-0.6,0.8-0.4,1.9-0.1,2.8c0.1,0.3,0.3,0.5,0.6,0.6
		c1.3,0.5,3.1,0.2,4.1-0.9c0.8-0.8,1.2-2.1,0.5-3.1C32.5,28.8,31.2,28.6,30.1,29.1z"/>
	<path fill="#7F4F25" d="M14.1,40.7c-0.6,1.1-0.5,2.5,1,3.2C15.4,44,15.7,44,16,44c0.5,0,1.1,0,1.6-0.1c0.9-0.2,1.6-0.9,2-1.7
		c0.5-0.9,0.5-2.2-0.3-2.8c-0.4-0.3-0.9-0.4-1.4-0.5c-1-0.1-1.9,0.2-2.7,0.7C14.7,39.9,14.4,40.3,14.1,40.7z"/>
	<path fill="#7F4F25" d="M28.6,43.2c0,0.1,0,0.2,0.1,0.3c0.2,0.5,0.8,0.7,1.3,0.9c0.6,0.2,1.4,0.2,2-0.1c0.6-0.3,1-1.1,0.7-1.7
		c-0.1-0.4-0.5-0.8-1-0.9c-0.4-0.1-0.9-0.1-1.4,0c-0.4,0.1-0.8,0.2-1.1,0.5C28.9,42.3,28.6,42.7,28.6,43.2z"/>
	<path fill="#7F4F25" d="M12,13.6c-0.7,0.5-1.5,1.5-1.7,2.2c-0.2,1.3,0.5,3.4,2,3.6c1,0.1,1.9-0.6,2.4-1.4c0.4-0.7,0.5-1.5,0.5-2.3
		c0-0.5,0-1-0.3-1.5c-0.5-0.9-1.6-1.3-2.6-0.9C12.4,13.4,12.2,13.5,12,13.6z"/>
</g>
</svg>
