<?xml version="1.0" encoding="utf-8"?>
<!-- Generator: Adobe Illustrator 18.0.0, SVG Export Plug-In . SVG Version: 6.00 Build 0)  -->
<!DOCTYPE svg PUBLIC "-//W3C//DTD SVG 1.1//EN" "http://www.w3.org/Graphics/SVG/1.1/DTD/svg11.dtd">
<svg version="1.1" id="Layer_1" xmlns="http://www.w3.org/2000/svg" xmlns:xlink="http://www.w3.org/1999/xlink" x="0px" y="0px"
	 viewBox="0 0 134.8 134.8" enable-background="new 0 0 134.8 134.8" xml:space="preserve">
<g>
	<circle fill="#EFB711" stroke="#FFFFFF" stroke-width="1.6104" stroke-miterlimit="10" cx="67.4" cy="67.4" r="66.6"/>
	<path fill="#FFFFFF" stroke="#808081" stroke-width="1.6104" stroke-miterlimit="10" d="M51.9,79.9c0,0-3,8.5-5,10.2
		c-2,1.6-3.1,3.3-3.1,3.3s-1.9,2.3,1.7,3c3.6,0.8,9.7,1.5,14.4,6.7c4.7,5.2,6,7,12.5,7.8c1.8,0.2,2.8-1,2.8-1s1.5-0.7-0.4-2.2
		c-1-0.8-1.2-2.7-1.2-3.9c0-2.4,0.7-4.7,2-6.7c1-1.5,2.2-2.8,3.6-3.8c1.6-1.2,3.4-2.5,5.4-2.8c1-0.2,2-0.2,3-0.5
		c2.7-0.8,3.6-3.1,2.7-5.7C90.2,84,90,83.6,90,83.4c0,0,0.1-0.8,0.9-1.6c0.8-0.8,1.4-1.8,0.5-2.5c-0.9-0.7,0-1.3,0-1.3
		c0.8-0.5,1-1.5,0.7-2.3c-0.4-1.1-0.6-2-0.6-3.2c1.1,0,2.4-0.2,3.3-0.8c3.2-2-0.4-5.3-1.9-6.9c-1.5-1.6-2.9-3.3-4.4-4.9
		c0,0-0.3-0.4,0-0.8c0.3-0.4,1.1-2,1.1-2s0.2-0.3,0.1-0.8c-0.1-0.5-1.6-6-2.5-7.8c-0.9-1.8-2.2-4.5-3-4.8c0,0-2.6-2.7-11.7-0.4
		S51.9,79.9,51.9,79.9z"/>
	<path fill="#CCCCCB" stroke="#676767" stroke-width="1.6104" stroke-miterlimit="10" d="M86.1,40c0,2-1.6,3.7-3.6,3.8
		c0,0-0.1,0-0.1,0c-0.9,0-1.8-0.3-2.5-0.9c-0.1,0.1-0.3,0.2-0.4,0.3c0.7,0.7,1.1,1.7,1.1,2.8c0,0.4-0.1,0.7-0.1,1.1
		c-0.4,1.4-1.5,2.5-3,2.8c-1.1,1.6-1.8,3.5-1.8,5.6c0,1.7,0.4,3.3,1.2,4.7c-0.6,0.6-1.2,1.2-1.8,1.7c-1.5,3.5-5,6-9.1,6
		c-0.3,0-0.7,0-1,0c-1.2,1.4-3,2.3-5,2.3c-0.4,0-0.8,0-1.1-0.1c0.2,0.8,0.3,1.6,0.3,2.4c0,6.4-5.2,11.5-11.5,11.5
		s-11.5-5.2-11.5-11.5c0-2.6,0.9-5,2.4-7c-0.5-0.9-0.8-1.9-0.8-3c0-1.5,0.6-3,1.5-4.1c-0.7-1.2-1.3-2.6-1.7-4
		c-2.8-10.4,4.9-21.5,17.2-24.8c8.3-2.2,16.6-0.4,22,4.3c0.1,0,0.2,0,0.3,0c1.9,0,3.6,1.1,4.4,2.6c0.3-0.1,0.6-0.1,0.9-0.1
		C84.4,36.2,86.1,37.9,86.1,40z"/>
	<circle fill="none" stroke="#010202" stroke-width="2.4156" stroke-miterlimit="10" cx="67.4" cy="67.4" r="54.8"/>
	<g>
		
			<path fill="none" stroke="#A47F13" stroke-width="3.2208" stroke-linecap="round" stroke-linejoin="round" stroke-dasharray="0,4.8198" d="
			M67.4,115c-26.2,0-47.6-21.3-47.6-47.6c0-26.2,21.3-47.6,47.6-47.6S115,41.2,115,67.4C115,93.6,93.6,115,67.4,115z"/>
	</g>
	<polygon fill="#FFFFFF" stroke="#010202" stroke-width="1.6104" stroke-miterlimit="10" points="125,105.6 94.7,94.7 105.7,124.8 
		110.2,115.4 121.2,126.4 126.4,121.3 115.3,110.2 	"/>
	<path fill="#F1F1F1" stroke="#808081" stroke-width="1.6104" stroke-miterlimit="10" d="M71.7,23.3c-0.2-0.1-0.3-0.1-0.5-0.1
		c-0.7,0-1.3,0-2,0c-0.2,0-0.3,0-0.5,0.1c-0.3,0.2-0.2,0.6-0.1,0.9c0.7,1.8,1.7,3.7,2.5,5.5c0.7,1.4,1.4,2.8,2,4.2l-3.2,2.4
		c1.2-2.1,1.1-4.8-0.5-6.9c-2.1-2.9-6.2-3.5-9-1.3s-3.5,6.2-1.3,9c1.5,2.1,4.1,3,6.5,2.5l-4.2,3.1c0-0.3-0.1-0.6-0.3-0.9l-5.9-8
		c-0.5-0.7-1.5-0.8-2.1-0.3l-8,5.9c-0.7,0.5-0.8,1.5-0.3,2.1l5.9,8c0.2,0.3,0.4,0.4,0.7,0.5l-4.2,3.1c1.2-2.1,1.1-4.8-0.5-6.9
		c-2.1-2.9-6.2-3.5-9-1.3c-2.9,2.1-3.5,6.2-1.3,9c1.5,2.1,4.1,3,6.5,2.5l-3.2,2.4c-1.1-1.1-2.3-2.1-3.4-3.2c-1.5-1.3-2.9-2.8-4.5-4
		c-0.3-0.2-0.6-0.4-0.9-0.1c-0.1,0.1-0.2,0.3-0.2,0.4c-0.2,0.6-0.4,1.3-0.6,1.9c0,0.2-0.1,0.3-0.1,0.5c0,0.3,0.2,0.5,0.4,0.6
		c2.7,2.2,5.1,4.7,7.7,7l1,1.3c0.5,0.7,1.5,0.8,2.2,0.3l36.2-27c0.7-0.5,0.8-1.4,0.3-2.1l-1-1.4c0,0,0-0.1,0-0.1
		c-1.5-3-3.1-6-4.4-9.2C72.1,23.7,71.9,23.4,71.7,23.3z"/>
</g>
</svg>
