<?xml version="1.0" encoding="utf-8"?>
<!-- Generator: Adobe Illustrator 18.0.0, SVG Export Plug-In . SVG Version: 6.00 Build 0)  -->
<!DOCTYPE svg PUBLIC "-//W3C//DTD SVG 1.1//EN" "http://www.w3.org/Graphics/SVG/1.1/DTD/svg11.dtd">
<svg version="1.1" id="Layer_1" xmlns="http://www.w3.org/2000/svg" xmlns:xlink="http://www.w3.org/1999/xlink" x="0px" y="0px"
	 viewBox="0 0 138.6 144.8" enable-background="new 0 0 138.6 144.8" xml:space="preserve">
<g>
	<circle fill="#01649E" stroke="#FFFFFF" stroke-width="1.6559" stroke-miterlimit="10" cx="69.3" cy="75.4" r="68.5"/>
	<path fill="none" d="M125.7,75.4c0,7.9-1.6,15.4-4.5,22.2c-8.6,20.1-28.6,34.2-51.8,34.2c-23.1,0-42.9-13.9-51.6-33.7
		c-3-6.9-4.7-14.6-4.7-22.6c0-21.8,12.4-40.8,30.6-50.1c0.6-0.3,1.2-0.6,1.8-0.9c7.3-3.4,15.4-5.4,24-5.4c8.7,0,16.9,2,24.2,5.5
		c0.6,0.3,1.3,0.6,1.9,0.9C113.4,34.9,125.7,53.7,125.7,75.4z"/>
	<path fill="none" stroke="#010202" stroke-width="2.4838" stroke-miterlimit="10" d="M125.7,76.3c0,13.5-4.7,25.8-12.6,35.5
		c-10.3,12.7-26.1,20.9-43.8,20.9c-17.5,0-33.1-8-43.5-20.5c-8.1-9.8-12.9-22.3-12.9-35.9c0-21.8,12.4-40.8,30.6-50.1
		c0.6-0.3,1.2-0.6,1.8-0.9c7.3-3.4,15.4-5.4,24-5.4c8.7,0,16.9,2,24.2,5.5c0.6,0.3,1.3,0.6,1.9,0.9
		C113.4,35.7,125.7,54.6,125.7,76.3z"/>
	<path fill="#FFFFFF" stroke="#010202" stroke-width="2" stroke-miterlimit="10" d="M121.1,93.1v4.5c-9,20.1-28.8,34.2-52.1,34.2
		c-23.1,0-42.9-13.9-51.9-33.7v-4.9c0-3.3,1.9-6.4,4.6-8.3c2.7-2,6-1.9,9.1-2.6c2.5-0.5,5.1-1,7.6-1.5c3.7-0.8,7.5-1.5,11.2-2.3
		l3.2-0.6l9.5-1.9l1.5-0.3l6.1-1.2l6.2,1.3l1.7,0.3l9.7,2l3.4,0.7c2.9,0.6,5.9,1.2,8.8,1.8c2.1,0.4,4.3,0.8,6.5,1.3
		c2.6,0.6,5.5,0.7,8.1,1.6C118.3,84.8,121.1,88.8,121.1,93.1z"/>
	<circle fill="#FFFFFF" cx="59.1" cy="37.8" r="0.6"/>
	<path fill="#FFFFFF" stroke="#010202" stroke-width="1.0262" stroke-miterlimit="10" d="M87.4,80.7c0,2.5-7.8,4.6-17.3,4.6
		s-17.3-2.1-17.3-4.6V80V56.8h34.6V80V80.7z"/>
	<path fill="none" stroke="#010202" stroke-width="1.0262" stroke-miterlimit="10" d="M87.4,77.5c0,2.5-7.8,4.6-17.3,4.6
		S52.8,80,52.8,77.5"/>
	<path fill="#FFFFFF" stroke="#010202" stroke-width="1.6559" stroke-miterlimit="10" d="M47.4,53.7l0.3-0.1c1.8-0.4,3-2.1,2.6-3.9
		l-2.4-12c-0.4-1.8-2.1-3-3.9-2.6l-0.3,0.1c-1.8,0.4-3,2.1-2.6,3.9l2.4,12C43.8,52.9,45.6,54.1,47.4,53.7z"/>
	<path fill="#FFFFFF" stroke="#010202" stroke-width="1.6559" stroke-miterlimit="10" d="M92.1,54l-0.3-0.1c-1.8-0.4-3-2.1-2.6-3.9
		l2.4-12c0.4-1.8,2.1-3,3.9-2.6l0.3,0.1c1.8,0.4,3,2.1,2.6,3.9l-2.4,12C95.6,53.1,93.9,54.3,92.1,54z"/>
	<path fill="#FFFFFF" stroke="#010202" stroke-width="2" stroke-miterlimit="10" d="M71.2,76c0,0,0,0,1.1,0c1.1,0,2.6,0.3,11.8-6.5
		s10-22.7,10-22.7V29.6C94.1,2.2,71.2,2,71.2,2h-2.2c0,0-24,0.2-24,27.6v17.3c0,0,1.4,15.9,10.5,22.7S66.9,76,68,76s1.1,0,1.1,0
		H71.2z"/>
	<path fill="#808081" stroke="#010202" stroke-width="2" stroke-miterlimit="10" d="M95.1,28.9v3.7c-3-0.6-7.7-2.4-11.6-5.4
		c-2.4-1.9-4.2-4-5.8-6.2c-4.5,4.4-10.4,8-17.8,10c-5.6,1.5-11.7,1.9-15.7,1.3v-3.4C44.1,0.9,68,1,69,1h2.2c0.5,0,5.3-0.2,10.5,2.2
		c1.1,0.5,1.7,1,2.8,1.7C90.2,8.7,95.1,15.7,95.1,28.9z"/>
</g>
</svg>
