<?xml version="1.0" encoding="utf-8"?>
<!-- Generator: Adobe Illustrator 18.0.0, SVG Export Plug-In . SVG Version: 6.00 Build 0)  -->
<!DOCTYPE svg PUBLIC "-//W3C//DTD SVG 1.1//EN" "http://www.w3.org/Graphics/SVG/1.1/DTD/svg11.dtd">
<svg version="1.1" id="Layer_1" xmlns="http://www.w3.org/2000/svg" xmlns:xlink="http://www.w3.org/1999/xlink" x="0px" y="0px"
	 viewBox="0 0 134.8 134.8" enable-background="new 0 0 134.8 134.8" xml:space="preserve">
<g>
	<circle fill="#E72D46" stroke="#FFFFFF" stroke-width="1.6104" stroke-miterlimit="10" cx="67.4" cy="67.4" r="66.6"/>
	<circle fill="none" stroke="#010202" stroke-width="2.4156" stroke-miterlimit="10" cx="67.1" cy="67.4" r="54.8"/>
	<g>
		<g>
			<path fill="#FFFFFF" stroke="#010202" stroke-width="1.6104" stroke-miterlimit="10" d="M77.7,109v2.5c0,5.5,4.5,10.1,10.1,10.1
				h4.2h8.3c0.9,0,1.7,0.8,1.7,1.7v2.8c0,0.9-0.8,1.7-1.7,1.7H35c-0.9,0-1.7-0.8-1.7-1.7v-2.8c0-0.9,0.8-1.7,1.7-1.7h8.3h4.2
				c5.5,0,10.1-4.5,10.1-10.1V109"/>
			<line fill="#FFFFFF" stroke="#010202" stroke-width="1.6104" stroke-miterlimit="10" x1="35" y1="121.5" x2="100.3" y2="121.5"/>
		</g>
		<path fill="#FFFFFF" stroke="#010202" stroke-width="1.6104" stroke-miterlimit="10" d="M116.6,109h-98c-5.5,0-10.1-4.5-10.1-10.1
			V33.6c0-5.5,4.5-10.1,10.1-10.1h98c5.5,0,10.1,4.5,10.1,10.1v65.3C126.7,104.4,122.2,109,116.6,109z"/>
		<path fill="#FFFFFF" stroke="#676767" stroke-width="2" stroke-miterlimit="10" d="M121.3,98.5c0,2.3-1.9,4.1-4.1,4.1H18.4
			c-2.3,0-4.1-1.9-4.1-4.1V34.7c0-2.3,1.9-4.1,4.1-4.1h98.7c2.3,0,4.1,1.9,4.1,4.1V98.5z"/>
		<rect x="24.8" y="40.1" fill="#05A37D" stroke="#026E51" stroke-miterlimit="10" width="86" height="20"/>
		<rect x="24.8" y="64.1" fill="#EFB711" stroke="#A98012" stroke-miterlimit="10" width="86" height="30"/>
		<text transform="matrix(1 0 0 1 50.6092 54.6516)"><tspan x="0" y="0" fill="#010202" font-family="'VAG-Rounded-Bold'" font-size="19.257" letter-spacing="1">&lt;</tspan><tspan x="13" y="1.7" fill="#010202" font-family="'VAG-Rounded-Bold'" font-size="19.257" letter-spacing="1">/</tspan><tspan x="21.2" y="0" fill="#010202" font-family="'VAG-Rounded-Bold'" font-size="19.257">&gt;</tspan></text>
		<g>
			<g>
				<line fill="none" stroke="#010202" stroke-width="0.8052" stroke-miterlimit="10" x1="97.4" y1="93.5" x2="97.4" y2="92.7"/>
				
					<line fill="none" stroke="#010202" stroke-width="0.8052" stroke-miterlimit="10" stroke-dasharray="1.4963,2.2444" x1="97.4" y1="90.4" x2="97.4" y2="80.3"/>
				<polyline fill="none" stroke="#010202" stroke-width="0.8052" stroke-miterlimit="10" points="97.4,79.2 97.4,78.4 96.6,78.4 
									"/>
				
					<line fill="none" stroke="#010202" stroke-width="0.8052" stroke-miterlimit="10" stroke-dasharray="1.5852,2.3778" x1="94.2" y1="78.4" x2="39.9" y2="78.4"/>
				<polyline fill="none" stroke="#010202" stroke-width="0.8052" stroke-miterlimit="10" points="38.7,78.4 37.9,78.4 37.9,79.2 
									"/>
				
					<line fill="none" stroke="#010202" stroke-width="0.8052" stroke-miterlimit="10" stroke-dasharray="1.4963,2.2444" x1="37.9" y1="81.4" x2="37.9" y2="91.5"/>
				<line fill="none" stroke="#010202" stroke-width="0.8052" stroke-miterlimit="10" x1="37.9" y1="92.7" x2="37.9" y2="93.5"/>
			</g>
		</g>
		<g>
			<g>
				<polyline fill="none" stroke="#010202" stroke-width="0.8052" stroke-miterlimit="10" points="97.4,68.7 97.4,67.9 96.6,67.9 
									"/>
				
					<line fill="none" stroke="#010202" stroke-width="0.8052" stroke-miterlimit="10" stroke-dasharray="1.5852,2.3778" x1="94.2" y1="67.9" x2="39.9" y2="67.9"/>
				<polyline fill="none" stroke="#010202" stroke-width="0.8052" stroke-miterlimit="10" points="38.7,67.9 37.9,67.9 37.9,68.7 
									"/>
				
					<line fill="none" stroke="#010202" stroke-width="0.8052" stroke-miterlimit="10" stroke-dasharray="1.482,2.223" x1="37.9" y1="70.9" x2="37.9" y2="73.5"/>
				<polyline fill="none" stroke="#010202" stroke-width="0.8052" stroke-miterlimit="10" points="37.9,74.6 37.9,75.5 38.7,75.5 
									"/>
				
					<line fill="none" stroke="#010202" stroke-width="0.8052" stroke-miterlimit="10" stroke-dasharray="1.5852,2.3778" x1="41.1" y1="75.5" x2="95.4" y2="75.5"/>
				<polyline fill="none" stroke="#010202" stroke-width="0.8052" stroke-miterlimit="10" points="96.6,75.5 97.4,75.5 97.4,74.6 
									"/>
				
					<line fill="none" stroke="#010202" stroke-width="0.8052" stroke-miterlimit="10" stroke-dasharray="1.482,2.223" x1="97.4" y1="72.4" x2="97.4" y2="69.8"/>
			</g>
		</g>
	</g>
</g>
</svg>
