<?xml version="1.0" encoding="utf-8"?>
<!-- Generator: Adobe Illustrator 18.0.0, SVG Export Plug-In . SVG Version: 6.00 Build 0)  -->
<!DOCTYPE svg PUBLIC "-//W3C//DTD SVG 1.1//EN" "http://www.w3.org/Graphics/SVG/1.1/DTD/svg11.dtd">
<svg version="1.1" id="Layer_1" xmlns="http://www.w3.org/2000/svg" xmlns:xlink="http://www.w3.org/1999/xlink" x="0px" y="0px"
	 viewBox="0 0 190.2 89.6" enable-background="new 0 0 190.2 89.6" xml:space="preserve">
<g>
	<g opacity="0.71">
		<g>
			<defs>
				<rect id="SVGID_1_" x="93" y="0" width="34.4" height="34.4"/>
			</defs>
			<clipPath id="SVGID_2_">
				<use xlink:href="#SVGID_1_"  overflow="visible"/>
			</clipPath>
			<path clip-path="url(#SVGID_2_)" fill="#F6AB8A" d="M93,17.2c0,9.5,7.7,17.2,17.2,17.2c9.5,0,17.2-7.7,17.2-17.2
				c0-9.5-7.7-17.2-17.2-17.2C100.7,0,93,7.7,93,17.2"/>
		</g>
	</g>
	<g>
		<defs>
			<path id="SVGID_3_" d="M57.1,32.1c0,14.4,11.7,26.1,26.1,26.1c14.4,0,26.1-11.7,26.1-26.1C109.3,17.7,97.6,6,83.2,6
				C68.7,6,57.1,17.7,57.1,32.1"/>
		</defs>
		<clipPath id="SVGID_4_">
			<use xlink:href="#SVGID_3_"  overflow="visible"/>
		</clipPath>
		<rect x="76.4" y="25.4" clip-path="url(#SVGID_4_)" fill="#F6AB8A" width="6.7" height="6.7"/>
		<rect x="69.7" y="25.4" clip-path="url(#SVGID_4_)" fill="#EB5B31" width="6.7" height="6.7"/>
		<rect x="63" y="25.4" clip-path="url(#SVGID_4_)" fill="#F6AB8A" width="6.7" height="6.7"/>
		<rect x="56.2" y="25.4" clip-path="url(#SVGID_4_)" fill="#EB5B31" width="6.7" height="6.7"/>
		<rect x="49.5" y="25.4" clip-path="url(#SVGID_4_)" fill="#F6AB8A" width="6.7" height="6.7"/>
		<rect x="42.8" y="25.4" clip-path="url(#SVGID_4_)" fill="#EB5B31" width="6.7" height="6.7"/>
		<rect x="83.2" y="25.4" clip-path="url(#SVGID_4_)" fill="#EB5B31" width="6.7" height="6.7"/>
		<rect x="89.9" y="25.4" clip-path="url(#SVGID_4_)" fill="#F6AB8A" width="6.7" height="6.7"/>
		<rect x="96.6" y="25.4" clip-path="url(#SVGID_4_)" fill="#EB5B31" width="6.7" height="6.7"/>
		<rect x="103.3" y="25.4" clip-path="url(#SVGID_4_)" fill="#F6AB8A" width="6.7" height="6.7"/>
		<rect x="110.1" y="25.4" clip-path="url(#SVGID_4_)" fill="#EB5B31" width="6.7" height="6.7"/>
		<rect x="116.8" y="25.4" clip-path="url(#SVGID_4_)" fill="#F6AB8A" width="6.7" height="6.7"/>
		<rect x="76.4" y="18.7" clip-path="url(#SVGID_4_)" fill="#FFFFFF" width="6.7" height="6.7"/>
		<rect x="69.7" y="18.7" clip-path="url(#SVGID_4_)" fill="#F6AB8A" width="6.7" height="6.7"/>
		<rect x="63" y="18.7" clip-path="url(#SVGID_4_)" fill="#FFFFFF" width="6.7" height="6.7"/>
		<rect x="56.2" y="18.7" clip-path="url(#SVGID_4_)" fill="#F6AB8A" width="6.7" height="6.7"/>
		<rect x="49.5" y="18.7" clip-path="url(#SVGID_4_)" fill="#FFFFFF" width="6.7" height="6.7"/>
		<rect x="42.8" y="18.7" clip-path="url(#SVGID_4_)" fill="#F6AB8A" width="6.7" height="6.7"/>
		<rect x="83.2" y="18.7" clip-path="url(#SVGID_4_)" fill="#F6AB8A" width="6.7" height="6.7"/>
		<rect x="89.9" y="18.7" clip-path="url(#SVGID_4_)" fill="#FFFFFF" width="6.7" height="6.7"/>
		<rect x="96.6" y="18.7" clip-path="url(#SVGID_4_)" fill="#F6AB8A" width="6.7" height="6.7"/>
		<rect x="103.3" y="18.7" clip-path="url(#SVGID_4_)" fill="#FFFFFF" width="6.7" height="6.7"/>
		<rect x="110.1" y="18.7" clip-path="url(#SVGID_4_)" fill="#F6AB8A" width="6.7" height="6.7"/>
		<rect x="116.8" y="18.7" clip-path="url(#SVGID_4_)" fill="#FFFFFF" width="6.7" height="6.7"/>
		<rect x="76.4" y="11.9" clip-path="url(#SVGID_4_)" fill="#F6AB8A" width="6.7" height="6.7"/>
		<rect x="69.7" y="11.9" clip-path="url(#SVGID_4_)" fill="#EB5B31" width="6.7" height="6.7"/>
		<rect x="63" y="11.9" clip-path="url(#SVGID_4_)" fill="#F6AB8A" width="6.7" height="6.7"/>
		<rect x="56.2" y="11.9" clip-path="url(#SVGID_4_)" fill="#EB5B31" width="6.7" height="6.7"/>
		<rect x="49.5" y="11.9" clip-path="url(#SVGID_4_)" fill="#F6AB8A" width="6.7" height="6.7"/>
		<rect x="42.8" y="11.9" clip-path="url(#SVGID_4_)" fill="#EB5B31" width="6.7" height="6.7"/>
		<rect x="83.2" y="11.9" clip-path="url(#SVGID_4_)" fill="#EB5B31" width="6.7" height="6.7"/>
		<rect x="89.9" y="11.9" clip-path="url(#SVGID_4_)" fill="#F6AB8A" width="6.7" height="6.7"/>
		<rect x="96.6" y="11.9" clip-path="url(#SVGID_4_)" fill="#EB5B31" width="6.7" height="6.7"/>
		<rect x="103.3" y="11.9" clip-path="url(#SVGID_4_)" fill="#F6AB8A" width="6.7" height="6.7"/>
		<rect x="110.1" y="11.9" clip-path="url(#SVGID_4_)" fill="#EB5B31" width="6.7" height="6.7"/>
		<rect x="116.8" y="11.9" clip-path="url(#SVGID_4_)" fill="#F6AB8A" width="6.7" height="6.7"/>
		<rect x="76.4" y="5.2" clip-path="url(#SVGID_4_)" fill="#FFFFFF" width="6.7" height="6.7"/>
		<rect x="69.7" y="5.2" clip-path="url(#SVGID_4_)" fill="#F6AB8A" width="6.7" height="6.7"/>
		<rect x="63" y="5.2" clip-path="url(#SVGID_4_)" fill="#FFFFFF" width="6.7" height="6.7"/>
		<rect x="56.2" y="5.2" clip-path="url(#SVGID_4_)" fill="#F6AB8A" width="6.7" height="6.7"/>
		<rect x="49.5" y="5.2" clip-path="url(#SVGID_4_)" fill="#FFFFFF" width="6.7" height="6.7"/>
		<rect x="42.8" y="5.2" clip-path="url(#SVGID_4_)" fill="#F6AB8A" width="6.7" height="6.7"/>
		<rect x="83.2" y="5.2" clip-path="url(#SVGID_4_)" fill="#F6AB8A" width="6.7" height="6.7"/>
		<rect x="89.9" y="5.2" clip-path="url(#SVGID_4_)" fill="#FFFFFF" width="6.7" height="6.7"/>
		<rect x="96.6" y="5.2" clip-path="url(#SVGID_4_)" fill="#F6AB8A" width="6.7" height="6.7"/>
		<rect x="103.3" y="5.2" clip-path="url(#SVGID_4_)" fill="#FFFFFF" width="6.7" height="6.7"/>
		<rect x="110.1" y="5.2" clip-path="url(#SVGID_4_)" fill="#F6AB8A" width="6.7" height="6.7"/>
		<rect x="116.8" y="5.2" clip-path="url(#SVGID_4_)" fill="#FFFFFF" width="6.7" height="6.7"/>
		<rect x="76.4" y="-1.5" clip-path="url(#SVGID_4_)" fill="#F6AB8A" width="6.7" height="6.7"/>
		<rect x="69.7" y="-1.5" clip-path="url(#SVGID_4_)" fill="#EB5B31" width="6.7" height="6.7"/>
		<rect x="63" y="-1.5" clip-path="url(#SVGID_4_)" fill="#F6AB8A" width="6.7" height="6.7"/>
		<rect x="56.2" y="-1.5" clip-path="url(#SVGID_4_)" fill="#EB5B31" width="6.7" height="6.7"/>
		<rect x="49.5" y="-1.5" clip-path="url(#SVGID_4_)" fill="#F6AB8A" width="6.7" height="6.7"/>
		<rect x="83.2" y="-1.5" clip-path="url(#SVGID_4_)" fill="#EB5B31" width="6.7" height="6.7"/>
		<rect x="89.9" y="-1.5" clip-path="url(#SVGID_4_)" fill="#F6AB8A" width="6.7" height="6.7"/>
		<rect x="96.6" y="-1.5" clip-path="url(#SVGID_4_)" fill="#EB5B31" width="6.7" height="6.7"/>
		<rect x="103.3" y="-1.5" clip-path="url(#SVGID_4_)" fill="#F6AB8A" width="6.7" height="6.7"/>
		<rect x="110.1" y="-1.5" clip-path="url(#SVGID_4_)" fill="#EB5B31" width="6.7" height="6.7"/>
		<rect x="76.4" y="-8.2" clip-path="url(#SVGID_4_)" fill="#FFFFFF" width="6.7" height="6.7"/>
		<rect x="69.7" y="-8.2" clip-path="url(#SVGID_4_)" fill="#F6AB8A" width="6.7" height="6.7"/>
		<rect x="63" y="-8.2" clip-path="url(#SVGID_4_)" fill="#FFFFFF" width="6.7" height="6.7"/>
		<rect x="56.2" y="-8.2" clip-path="url(#SVGID_4_)" fill="#F6AB8A" width="6.7" height="6.7"/>
		<rect x="83.2" y="-8.2" clip-path="url(#SVGID_4_)" fill="#F6AB8A" width="6.7" height="6.7"/>
		<rect x="89.9" y="-8.2" clip-path="url(#SVGID_4_)" fill="#FFFFFF" width="6.7" height="6.7"/>
		<rect x="96.6" y="-8.2" clip-path="url(#SVGID_4_)" fill="#F6AB8A" width="6.7" height="6.7"/>
		<rect x="103.3" y="-8.2" clip-path="url(#SVGID_4_)" fill="#FFFFFF" width="6.7" height="6.7"/>
		<rect x="76.4" y="32.1" clip-path="url(#SVGID_4_)" fill="#FFFFFF" width="6.7" height="6.7"/>
		<rect x="69.7" y="32.1" clip-path="url(#SVGID_4_)" fill="#F6AB8A" width="6.7" height="6.7"/>
		<rect x="63" y="32.1" clip-path="url(#SVGID_4_)" fill="#FFFFFF" width="6.7" height="6.7"/>
		<rect x="56.2" y="32.1" clip-path="url(#SVGID_4_)" fill="#F6AB8A" width="6.7" height="6.7"/>
		<rect x="49.5" y="32.1" clip-path="url(#SVGID_4_)" fill="#FFFFFF" width="6.7" height="6.7"/>
		<rect x="42.8" y="32.1" clip-path="url(#SVGID_4_)" fill="#F6AB8A" width="6.7" height="6.7"/>
		<rect x="83.2" y="32.1" clip-path="url(#SVGID_4_)" fill="#F6AB8A" width="6.7" height="6.7"/>
		<rect x="89.9" y="32.1" clip-path="url(#SVGID_4_)" fill="#FFFFFF" width="6.7" height="6.7"/>
		<rect x="96.6" y="32.1" clip-path="url(#SVGID_4_)" fill="#F6AB8A" width="6.7" height="6.7"/>
		<rect x="103.3" y="32.1" clip-path="url(#SVGID_4_)" fill="#FFFFFF" width="6.7" height="6.7"/>
		<rect x="110.1" y="32.1" clip-path="url(#SVGID_4_)" fill="#F6AB8A" width="6.7" height="6.7"/>
		<rect x="116.8" y="32.1" clip-path="url(#SVGID_4_)" fill="#FFFFFF" width="6.7" height="6.7"/>
		<rect x="76.4" y="38.9" clip-path="url(#SVGID_4_)" fill="#F6AB8A" width="6.7" height="6.7"/>
		<rect x="69.7" y="38.9" clip-path="url(#SVGID_4_)" fill="#EB5B31" width="6.7" height="6.7"/>
		<rect x="63" y="38.9" clip-path="url(#SVGID_4_)" fill="#F6AB8A" width="6.7" height="6.7"/>
		<rect x="56.2" y="38.9" clip-path="url(#SVGID_4_)" fill="#EB5B31" width="6.7" height="6.7"/>
		<rect x="49.5" y="38.9" clip-path="url(#SVGID_4_)" fill="#F6AB8A" width="6.7" height="6.7"/>
		<rect x="42.8" y="38.9" clip-path="url(#SVGID_4_)" fill="#EB5B31" width="6.7" height="6.7"/>
		<rect x="83.2" y="38.9" clip-path="url(#SVGID_4_)" fill="#EB5B31" width="6.7" height="6.7"/>
		<rect x="89.9" y="38.9" clip-path="url(#SVGID_4_)" fill="#F6AB8A" width="6.7" height="6.7"/>
		<rect x="96.6" y="38.9" clip-path="url(#SVGID_4_)" fill="#EB5B31" width="6.7" height="6.7"/>
		<rect x="103.3" y="38.9" clip-path="url(#SVGID_4_)" fill="#F6AB8A" width="6.7" height="6.7"/>
		<rect x="110.1" y="38.9" clip-path="url(#SVGID_4_)" fill="#EB5B31" width="6.7" height="6.7"/>
		<rect x="116.8" y="38.9" clip-path="url(#SVGID_4_)" fill="#F6AB8A" width="6.7" height="6.7"/>
		<rect x="76.4" y="45.6" clip-path="url(#SVGID_4_)" fill="#FFFFFF" width="6.7" height="6.7"/>
		<rect x="69.7" y="45.6" clip-path="url(#SVGID_4_)" fill="#F6AB8A" width="6.7" height="6.7"/>
		<rect x="63" y="45.6" clip-path="url(#SVGID_4_)" fill="#FFFFFF" width="6.7" height="6.7"/>
		<rect x="56.2" y="45.6" clip-path="url(#SVGID_4_)" fill="#F6AB8A" width="6.7" height="6.7"/>
		<rect x="49.5" y="45.6" clip-path="url(#SVGID_4_)" fill="#FFFFFF" width="6.7" height="6.7"/>
		<rect x="42.8" y="45.6" clip-path="url(#SVGID_4_)" fill="#F6AB8A" width="6.7" height="6.7"/>
		<rect x="83.2" y="45.6" clip-path="url(#SVGID_4_)" fill="#F6AB8A" width="6.7" height="6.7"/>
		<rect x="89.9" y="45.6" clip-path="url(#SVGID_4_)" fill="#FFFFFF" width="6.7" height="6.7"/>
		<rect x="96.6" y="45.6" clip-path="url(#SVGID_4_)" fill="#F6AB8A" width="6.7" height="6.7"/>
		<rect x="103.3" y="45.6" clip-path="url(#SVGID_4_)" fill="#FFFFFF" width="6.7" height="6.7"/>
		<rect x="110.1" y="45.6" clip-path="url(#SVGID_4_)" fill="#F6AB8A" width="6.7" height="6.7"/>
		<rect x="116.8" y="45.6" clip-path="url(#SVGID_4_)" fill="#FFFFFF" width="6.7" height="6.7"/>
		<rect x="76.4" y="52.3" clip-path="url(#SVGID_4_)" fill="#F6AB8A" width="6.7" height="6.7"/>
		<rect x="69.7" y="52.3" clip-path="url(#SVGID_4_)" fill="#EB5B31" width="6.7" height="6.7"/>
		<rect x="63" y="52.3" clip-path="url(#SVGID_4_)" fill="#F6AB8A" width="6.7" height="6.7"/>
		<rect x="56.2" y="52.3" clip-path="url(#SVGID_4_)" fill="#EB5B31" width="6.7" height="6.7"/>
		<rect x="49.5" y="52.3" clip-path="url(#SVGID_4_)" fill="#F6AB8A" width="6.7" height="6.7"/>
		<rect x="83.2" y="52.3" clip-path="url(#SVGID_4_)" fill="#EB5B31" width="6.7" height="6.7"/>
		<rect x="89.9" y="52.3" clip-path="url(#SVGID_4_)" fill="#F6AB8A" width="6.7" height="6.7"/>
		<rect x="96.6" y="52.3" clip-path="url(#SVGID_4_)" fill="#EB5B31" width="6.7" height="6.7"/>
		<rect x="103.3" y="52.3" clip-path="url(#SVGID_4_)" fill="#F6AB8A" width="6.7" height="6.7"/>
		<rect x="110.1" y="52.3" clip-path="url(#SVGID_4_)" fill="#EB5B31" width="6.7" height="6.7"/>
		<rect x="116.8" y="52.3" clip-path="url(#SVGID_4_)" fill="#F6AB8A" width="6.7" height="6.7"/>
		<rect x="76.4" y="59" clip-path="url(#SVGID_4_)" fill="#FFFFFF" width="6.7" height="6.7"/>
		<rect x="69.7" y="59" clip-path="url(#SVGID_4_)" fill="#F6AB8A" width="6.7" height="6.7"/>
		<rect x="63" y="59" clip-path="url(#SVGID_4_)" fill="#FFFFFF" width="6.7" height="6.7"/>
		<rect x="56.2" y="59" clip-path="url(#SVGID_4_)" fill="#F6AB8A" width="6.7" height="6.7"/>
		<rect x="49.5" y="59" clip-path="url(#SVGID_4_)" fill="#FFFFFF" width="6.7" height="6.7"/>
		<rect x="83.2" y="59" clip-path="url(#SVGID_4_)" fill="#F6AB8A" width="6.7" height="6.7"/>
		<rect x="89.9" y="59" clip-path="url(#SVGID_4_)" fill="#FFFFFF" width="6.7" height="6.7"/>
		<rect x="96.6" y="59" clip-path="url(#SVGID_4_)" fill="#F6AB8A" width="6.7" height="6.7"/>
		<rect x="103.3" y="59" clip-path="url(#SVGID_4_)" fill="#FFFFFF" width="6.7" height="6.7"/>
		<rect x="110.1" y="59" clip-path="url(#SVGID_4_)" fill="#F6AB8A" width="6.7" height="6.7"/>
		<rect x="76.4" y="65.8" clip-path="url(#SVGID_4_)" fill="#F6AB8A" width="6.7" height="6.7"/>
		<rect x="69.7" y="65.8" clip-path="url(#SVGID_4_)" fill="#EB5B31" width="6.7" height="6.7"/>
		<rect x="63" y="65.8" clip-path="url(#SVGID_4_)" fill="#F6AB8A" width="6.7" height="6.7"/>
		<rect x="56.2" y="65.8" clip-path="url(#SVGID_4_)" fill="#EB5B31" width="6.7" height="6.7"/>
		<rect x="83.2" y="65.8" clip-path="url(#SVGID_4_)" fill="#EB5B31" width="6.7" height="6.7"/>
		<rect x="89.9" y="65.8" clip-path="url(#SVGID_4_)" fill="#F6AB8A" width="6.7" height="6.7"/>
		<rect x="96.6" y="65.8" clip-path="url(#SVGID_4_)" fill="#EB5B31" width="6.7" height="6.7"/>
		<rect x="103.3" y="65.8" clip-path="url(#SVGID_4_)" fill="#F6AB8A" width="6.7" height="6.7"/>
	</g>
	<path fill="#EB5B31" d="M82.5,48.3c0,22.8-18.5,41.2-41.2,41.2C18.5,89.6,0,71.1,0,48.3S18.5,7.1,41.2,7.1
		C64,7.1,82.5,25.5,82.5,48.3"/>
	<path fill="#484A4A" d="M28.3,41.9c0.4-0.1,0.8-0.1,1.3-0.2c0.5,0,1-0.1,1.4-0.1c0.5,0,1,0,1.4,0c0.5,0,0.9,0,1.3,0
		c1.8,0,3.3,0.3,4.5,0.9c1.2,0.6,2.2,1.5,3,2.6c0.8,1.1,1.3,2.5,1.7,4c0.3,1.6,0.5,3.3,0.5,5.3c0,1.7-0.2,3.4-0.5,5
		c-0.3,1.6-0.9,3-1.7,4.2c-0.8,1.2-1.8,2.2-3.1,2.9c-1.3,0.7-2.9,1.1-4.8,1.1c-0.3,0-0.7,0-1.2,0c-0.5,0-1,0-1.5-0.1
		c-0.5,0-1-0.1-1.5-0.1c-0.4,0-0.8-0.1-1-0.1V41.9z M33.9,44.2h-0.8c-0.3,0-0.6,0-0.8,0c-0.3,0-0.5,0-0.7,0.1c-0.2,0-0.4,0-0.6,0.1
		V65c0.1,0,0.3,0,0.5,0.1c0.3,0,0.5,0,0.8,0c0.3,0,0.5,0,0.8,0c0.3,0,0.4,0,0.6,0c1.3,0,2.4-0.3,3.3-0.9c0.9-0.6,1.6-1.4,2.1-2.3
		c0.5-1,0.9-2.1,1.1-3.4c0.2-1.3,0.3-2.7,0.3-4.1c0-1.3-0.1-2.5-0.3-3.8c-0.2-1.2-0.5-2.3-1-3.3c-0.5-1-1.2-1.7-2-2.3
		C36.4,44.5,35.3,44.2,33.9,44.2"/>
	<path fill="#484A4A" d="M47.1,43.7c0-0.6,0.2-1.1,0.5-1.4c0.3-0.4,0.8-0.5,1.3-0.5c0.5,0,1,0.2,1.3,0.5c0.4,0.4,0.5,0.8,0.5,1.4
		c0,0.6-0.2,1-0.5,1.4c-0.4,0.3-0.8,0.5-1.3,0.5c-0.5,0-1-0.2-1.3-0.5C47.3,44.7,47.1,44.2,47.1,43.7 M47.6,49.2h2.6v18.1h-2.6V49.2
		z"/>
	<path fill="#484A4A" d="M66.5,68.2c0,2.3-0.5,4.1-1.6,5.2c-1,1.1-2.6,1.7-4.5,1.7c-1.2,0-2.2-0.1-3-0.3c-0.8-0.2-1.4-0.4-1.9-0.7
		l0.8-2.2c0.5,0.2,1,0.4,1.6,0.6c0.6,0.2,1.3,0.3,2.1,0.3c1.5,0,2.5-0.4,3-1.2c0.5-0.8,0.8-2.2,0.8-4.1V66h-0.1
		c-0.4,0.6-0.9,1-1.5,1.3c-0.6,0.3-1.4,0.5-2.3,0.5c-2,0-3.4-0.8-4.3-2.3c-0.9-1.5-1.4-3.9-1.4-7.1c0-3.1,0.6-5.5,1.8-7.1
		c1.2-1.6,3-2.4,5.3-2.4c1.1,0,2.1,0.1,2.9,0.3c0.8,0.2,1.5,0.5,2.2,0.8V68.2z M63.9,51.8c-0.7-0.4-1.7-0.6-2.8-0.6
		c-1.2,0-2.2,0.6-3,1.7c-0.8,1.1-1.1,2.9-1.1,5.4c0,1,0.1,2,0.2,2.8c0.1,0.9,0.3,1.6,0.6,2.2c0.3,0.6,0.7,1.1,1.1,1.5
		c0.4,0.4,1,0.5,1.7,0.5c0.9,0,1.6-0.2,2.2-0.7c0.5-0.5,0.9-1.2,1.2-2.2V51.8z"/>
	<path fill="#484A4A" d="M70.7,43.7c0-0.6,0.2-1.1,0.5-1.4c0.3-0.4,0.8-0.5,1.3-0.5c0.5,0,1,0.2,1.3,0.5c0.4,0.4,0.5,0.8,0.5,1.4
		c0,0.6-0.2,1-0.5,1.4c-0.4,0.3-0.8,0.5-1.3,0.5c-0.5,0-1-0.2-1.3-0.5C70.8,44.7,70.7,44.2,70.7,43.7 M71.2,49.2h2.6v18.1h-2.6V49.2
		z"/>
	<path fill="#484A4A" d="M76.8,49.2H79v-3.6l2.6-0.8v4.4h3.9v2.4h-3.9v10.8c0,1.1,0.1,1.8,0.4,2.3c0.3,0.5,0.7,0.7,1.3,0.7
		c0.5,0,0.9-0.1,1.3-0.2c0.4-0.1,0.7-0.2,1.1-0.4l0.5,2.1c-0.5,0.3-1.1,0.5-1.8,0.6c-0.6,0.2-1.3,0.2-2,0.2c-1.2,0-2.1-0.4-2.6-1.2
		c-0.5-0.8-0.8-2.1-0.8-3.8V51.6h-2.2V49.2z"/>
	<path fill="#484A4A" d="M88.4,50.3c0.7-0.4,1.6-0.8,2.6-1c1-0.2,2.1-0.4,3.2-0.4c1,0,1.8,0.2,2.4,0.5c0.6,0.3,1.1,0.7,1.5,1.2
		c0.4,0.5,0.6,1.1,0.7,1.8c0.1,0.7,0.2,1.4,0.2,2.1c0,1.5,0,2.9-0.1,4.2c-0.1,1.4-0.1,2.7-0.1,3.9c0,0.9,0,1.8,0.1,2.6
		c0.1,0.8,0.2,1.5,0.3,2.2h-2l-0.6-2.1h-0.1c-0.4,0.6-0.9,1.2-1.6,1.6c-0.7,0.5-1.6,0.7-2.8,0.7c-1.3,0-2.4-0.5-3.2-1.4
		c-0.8-0.9-1.2-2.2-1.2-3.8c0-1,0.2-1.9,0.5-2.6c0.3-0.7,0.8-1.3,1.5-1.7c0.6-0.4,1.4-0.7,2.3-0.9c0.9-0.2,1.9-0.3,2.9-0.3h0.7
		c0.2,0,0.5,0,0.8,0c0.1-0.8,0.1-1.4,0.1-2c0-1.4-0.2-2.3-0.6-2.9c-0.4-0.6-1.2-0.8-2.2-0.8c-0.7,0-1.4,0.1-2.2,0.3
		c-0.8,0.2-1.5,0.5-2,0.8L88.4,50.3z M96.2,59.1c-0.2,0-0.5,0-0.7-0.1c-0.2,0-0.5,0-0.7,0c-0.6,0-1.1,0-1.7,0.1
		c-0.5,0.1-1,0.3-1.5,0.5c-0.4,0.2-0.8,0.6-1,1c-0.3,0.4-0.4,0.9-0.4,1.6c0,1,0.2,1.7,0.7,2.2c0.5,0.5,1.1,0.8,1.8,0.8
		c1,0,1.8-0.2,2.3-0.7c0.5-0.5,0.9-1,1.1-1.6V59.1z"/>
	<path fill="#484A4A" d="M105.9,63c0,0.8,0.1,1.5,0.3,1.8c0.2,0.4,0.6,0.5,1,0.5c0.5,0,1.1-0.1,1.8-0.4l0.3,2.1
		c-0.3,0.2-0.8,0.3-1.3,0.5c-0.6,0.1-1.1,0.2-1.5,0.2c-0.9,0-1.7-0.3-2.2-0.9c-0.6-0.6-0.9-1.6-0.9-3v-22h2.6V63z"/>
	<path fill="#484A4A" d="M119.4,42.2c0.8-0.2,1.6-0.4,2.5-0.4c0.9-0.1,1.7-0.1,2.6-0.1c1,0,1.9,0.1,2.9,0.3c0.9,0.2,1.8,0.6,2.6,1.2
		c0.8,0.6,1.4,1.4,1.9,2.4c0.5,1,0.7,2.3,0.7,3.9c0,1.5-0.2,2.8-0.7,3.9c-0.4,1.1-1,1.9-1.8,2.6c-0.7,0.7-1.6,1.2-2.5,1.5
		c-1,0.3-1.9,0.5-3,0.5H124c-0.2,0-0.4,0-0.7,0c-0.2,0-0.5,0-0.7-0.1c-0.2,0-0.4-0.1-0.5-0.1v9.7h-2.7V42.2z M124.6,44.2
		c-0.5,0-0.9,0-1.4,0.1c-0.4,0-0.8,0.1-1.1,0.2v10.8c0.1,0,0.2,0.1,0.5,0.1c0.2,0,0.4,0,0.6,0c0.2,0,0.4,0,0.6,0h0.5
		c0.7,0,1.3-0.1,2-0.3c0.6-0.2,1.2-0.5,1.7-0.9c0.5-0.4,0.9-1.1,1.2-1.8c0.3-0.8,0.5-1.7,0.5-2.9c0-1-0.1-1.9-0.4-2.5
		c-0.3-0.7-0.6-1.2-1.1-1.6c-0.4-0.4-1-0.7-1.6-0.9C125.9,44.2,125.3,44.2,124.6,44.2"/>
	<path fill="#EB5B31" d="M135.6,43.7c0-0.6,0.2-1.1,0.5-1.4c0.3-0.4,0.8-0.5,1.3-0.5c0.5,0,1,0.2,1.3,0.5c0.3,0.4,0.5,0.8,0.5,1.4
		c0,0.6-0.2,1-0.5,1.4c-0.4,0.3-0.8,0.5-1.3,0.5c-0.5,0-1-0.2-1.3-0.5C135.7,44.7,135.6,44.2,135.6,43.7"/>
	<rect x="136" y="49.2" fill="#484A4A" width="2.6" height="18.1"/>
	<path fill="#484A4A" d="M153.5,66.4c-0.6,0.5-1.3,0.8-2.1,1c-0.8,0.2-1.6,0.3-2.4,0.3c-1.2,0-2.1-0.2-2.9-0.7
		c-0.8-0.4-1.4-1.1-1.9-1.9c-0.5-0.8-0.9-1.8-1.1-3c-0.2-1.2-0.3-2.5-0.3-3.9c0-3.1,0.6-5.5,1.7-7.1c1.1-1.6,2.7-2.4,4.7-2.4
		c0.9,0,1.8,0.1,2.4,0.3c0.7,0.2,1.3,0.4,1.7,0.7l-0.7,2.3c-1-0.6-2-0.8-3.2-0.8c-1.3,0-2.3,0.6-3,1.7c-0.7,1.1-1,3-1,5.4
		c0,1,0.1,1.9,0.2,2.8c0.1,0.9,0.4,1.6,0.7,2.3c0.3,0.6,0.8,1.2,1.3,1.5c0.5,0.4,1.2,0.6,2,0.6c0.6,0,1.2-0.1,1.8-0.3
		c0.5-0.2,1-0.5,1.3-0.8L153.5,66.4z"/>
	<path fill="#484A4A" d="M165.7,67.4V56.3c0-1.8-0.2-3.1-0.6-3.9c-0.4-0.8-1.2-1.2-2.3-1.2c-1,0-1.8,0.3-2.4,0.9
		c-0.6,0.6-1.1,1.3-1.4,2.1v13.2h-2.6V49.2h1.9l0.5,1.9h0.1c0.5-0.7,1.1-1.2,1.9-1.7c0.8-0.5,1.7-0.7,2.8-0.7c0.8,0,1.5,0.1,2.1,0.3
		c0.6,0.2,1.1,0.6,1.5,1.1c0.4,0.5,0.7,1.2,0.9,2.1c0.2,0.9,0.3,2,0.3,3.3v11.8H165.7z"/>
	<path fill="#EB5B31" d="M172.3,43.7c0-0.6,0.2-1.1,0.5-1.4c0.3-0.4,0.8-0.5,1.3-0.5c0.5,0,1,0.2,1.3,0.5c0.4,0.4,0.5,0.8,0.5,1.4
		c0,0.6-0.2,1-0.5,1.4c-0.4,0.3-0.8,0.5-1.3,0.5c-0.5,0-1-0.2-1.3-0.5C172.5,44.7,172.3,44.2,172.3,43.7"/>
	<rect x="172.8" y="49.2" fill="#484A4A" width="2.6" height="18.1"/>
	<path fill="#484A4A" d="M190.2,66.4c-0.6,0.5-1.3,0.8-2.1,1c-0.8,0.2-1.6,0.3-2.4,0.3c-1.2,0-2.1-0.2-2.9-0.7
		c-0.8-0.4-1.4-1.1-1.9-1.9c-0.5-0.8-0.9-1.8-1.1-3c-0.2-1.2-0.3-2.5-0.3-3.9c0-3.1,0.5-5.5,1.6-7.1c1.1-1.6,2.7-2.4,4.7-2.4
		c0.9,0,1.8,0.1,2.4,0.3c0.7,0.2,1.3,0.4,1.7,0.7l-0.7,2.3c-1-0.6-2-0.8-3.2-0.8c-1.3,0-2.3,0.6-3,1.7c-0.7,1.1-1,3-1,5.4
		c0,1,0.1,1.9,0.2,2.8c0.1,0.9,0.4,1.6,0.7,2.3c0.3,0.6,0.8,1.2,1.3,1.5c0.5,0.4,1.2,0.6,2,0.6c0.6,0,1.2-0.1,1.8-0.3
		c0.5-0.2,1-0.5,1.3-0.8L190.2,66.4z"/>
</g>
</svg>
