<?xml version="1.0" encoding="utf-8"?>
<!-- Generator: Adobe Illustrator 18.0.0, SVG Export Plug-In . SVG Version: 6.00 Build 0)  -->
<!DOCTYPE svg PUBLIC "-//W3C//DTD SVG 1.1//EN" "http://www.w3.org/Graphics/SVG/1.1/DTD/svg11.dtd">
<svg version="1.1" id="Layer_1" xmlns="http://www.w3.org/2000/svg" xmlns:xlink="http://www.w3.org/1999/xlink" x="0px" y="0px"
	 viewBox="0 0 32 32" enable-background="new 0 0 32 32" xml:space="preserve">
<g>
	<circle fill="#3B3331" cx="16" cy="16" r="16"/>
	<rect x="8.2" y="13.3" fill="#FFFFFF" width="3.4" height="10.3"/>
	<path fill="#FFFFFF" d="M9.9,11.9L9.9,11.9c-1.2,0-1.9-0.8-1.9-1.8c0-1,0.8-1.8,1.9-1.8c1.2,0,1.9,0.8,1.9,1.8
		C11.9,11.1,11.1,11.9,9.9,11.9z"/>
	<path fill="#FFFFFF" d="M24,23.6h-3.4v-5.5c0-1.4-0.5-2.3-1.7-2.3c-0.9,0-1.5,0.6-1.8,1.3C17,17.3,17,17.6,17,17.9v5.8h-3.4
		c0,0,0-9.3,0-10.3H17v1.5c0.5-0.7,1.3-1.7,3.1-1.7c2.3,0,3.9,1.5,3.9,4.6V23.6z"/>
</g>
</svg>
