<?xml version="1.0" encoding="utf-8"?>
<!-- Generator: Adobe Illustrator 18.0.0, SVG Export Plug-In . SVG Version: 6.00 Build 0)  -->
<!DOCTYPE svg PUBLIC "-//W3C//DTD SVG 1.1//EN" "http://www.w3.org/Graphics/SVG/1.1/DTD/svg11.dtd">
<svg version="1.1" id="Layer_1" xmlns="http://www.w3.org/2000/svg" xmlns:xlink="http://www.w3.org/1999/xlink" x="0px" y="0px"
	 viewBox="0 0 241.6 272.5" enable-background="new 0 0 241.6 272.5" xml:space="preserve">
<g>
	<path fill="#5E8D2F" d="M190.3,145.7c0,0,38.9,11.1,49.3-16.9C249.9,101,218.3,89,218.3,89s20-23.9-7.3-47.5
		c-27.3-23.7-51.1-7-51.1-7s-2.8-38.2-50.3-34.1C62,4.5,64.4,35.5,64.4,35.5S51.3,17.8,19.4,44c-31.9,26.2-20,64.1,4.4,64.5
		c0,0-26.1,15-5.5,37.1c29.8,32.1,61.4,8.4,61.4,8.4s7.8,15.3,49.6,19C162.4,176,188.1,161.6,190.3,145.7z"/>
	<path opacity="0.3" fill="#5E8D2F" d="M19.4,44c31.9-26.2,45.1-8.5,45.1-8.5S62,4.5,109.6,0.3c47.5-4.2,50.3,34.1,50.3,34.1
		s23.8-16.6,51.1,7c27.3,23.7,7.3,47.5,7.3,47.5s31.6,12,21.3,39.9c-4.6,12.3-14.7,17.1-24.5,18.5c-1.5-29.3-26.5-59.1-50.9-71.9
		c-14.5-6.4-31-9.3-45.7-12c-24.5-3.9-57.8,4-69.2,8.9c-14.4,9.9-30,17.2-40.8,29.7C-3.9,90-4.7,63.7,19.4,44z"/>
	<path fill="#614E2F" d="M138.7,264.6c2.8-64.8-1.1-119-1.1-119c39.9-22.2,41.1-56.3,41.1-56.3c-10.5,34.5-46.7,49-46.7,49
		c-4-32.3-12.4-47.8-12.4-47.8c5.6-9.7,15.5-34.2,15.5-34.2l-18.6,29C111.6,69,93.1,53.8,93.1,53.8c23.8,26.5,28.9,81.9,28.9,81.9
		c-50.8-12-75.3-68.6-75.3-68.6c-1.9,16,21.9,42.9,21.9,42.9c-12.9,4.2-30.7,5.7-30.7,5.7c18.6,6.7,34.7,0.6,34.7,0.6
		c12.7,13.8,47.2,32.6,47.2,32.6c-1.8,60.4-14.6,114-14.6,114l-18.8,4.8c0,0,14,3.2,20,2.6c6-0.7,12.9,1.8,17.1,2.1
		c4.2,0.2,8.9-1.3,14.1-1.2c11.1,0.3,13-1.7,13-1.7L138.7,264.6z"/>
</g>
</svg>
